<?xml version="1.0" standalone="no"?>
<!DOCTYPE svg PUBLIC "-//W3C//DTD SVG 1.1//EN" "http://www.w3.org/Graphics/SVG/1.1/DTD/svg11.dtd" >
<svg xmlns="http://www.w3.org/2000/svg">
<metadata>
Created by FontForge 20120731 at Mon Mar 27 11:19:37 2017
 By admin
</metadata>
<defs>
<font id="iconfont" horiz-adv-x="1024" >
  <font-face 
    font-family="iconfont"
    font-weight="500"
    font-stretch="normal"
    units-per-em="1024"
    panose-1="2 0 6 3 0 0 0 0 0 0"
    ascent="896"
    descent="-128"
    x-height="792"
    bbox="0 -211.022 1954 902"
    underline-thickness="0"
    underline-position="0"
    unicode-range="U+0078-EB87"
  />
<missing-glyph 
 />
    <glyph glyph-name=".notdef" 
 />
    <glyph glyph-name=".notdef" 
 />
    <glyph glyph-name=".null" horiz-adv-x="0" 
 />
    <glyph glyph-name="nonmarkingreturn" horiz-adv-x="341" 
 />
    <glyph glyph-name="x" unicode="x" horiz-adv-x="1001" 
d="M281 543q-27 -1 -53 -1h-83q-18 0 -36.5 -6t-32.5 -18.5t-23 -32t-9 -45.5v-76h912v41q0 16 -0.5 30t-0.5 18q0 13 -5 29t-17 29.5t-31.5 22.5t-49.5 9h-133v-97h-438v97zM955 310v-52q0 -23 0.5 -52t0.5 -58t-10.5 -47.5t-26 -30t-33 -16t-31.5 -4.5q-14 -1 -29.5 -0.5
t-29.5 0.5h-32l-45 128h-439l-44 -128h-29h-34q-20 0 -45 1q-25 0 -41 9.5t-25.5 23t-13.5 29.5t-4 30v167h911zM163 247q-12 0 -21 -8.5t-9 -21.5t9 -21.5t21 -8.5q13 0 22 8.5t9 21.5t-9 21.5t-22 8.5zM316 123q-8 -26 -14 -48q-5 -19 -10.5 -37t-7.5 -25t-3 -15t1 -14.5
t9.5 -10.5t21.5 -4h37h67h81h80h64h36q23 0 34 12t2 38q-5 13 -9.5 30.5t-9.5 34.5q-5 19 -11 39h-368zM336 498v228q0 11 2.5 23t10 21.5t20.5 15.5t34 6h188q31 0 51.5 -14.5t20.5 -52.5v-227h-327z" />
    <glyph glyph-name="shouye" unicode="&#xe601;" horiz-adv-x="1000" 
d="M919 252l-397 396l-7 7q-9 10 -15 11v0v0h-0.5h-0.5q-3 -1 -6.5 -4t-5.5 -6l-3 -2l-6 -6l-396 -395q-53 14 -78 62l423 424q31 31 75 31t75 -31l423 -424q-26 -50 -81 -63zM865 215v-324q0 -27 -19.5 -45.5t-46.5 -18.5h-165l0.5 2.5t0.5 3.5v254q0 27 -18 46.5t-43 19.5
h-140q-25 0 -43 -19.5t-18 -46.5v-254q0 -1 1 -6h-167q-27 0 -46.5 18.5t-19.5 45.5v331l359 386z" />
    <glyph glyph-name="fanhui" unicode="&#xe61b;" 
d="M625 692l-40 40l-365 -366l365 -366l40 40l-326 326z" />
    <glyph glyph-name="cuxiaohuodong" unicode="&#xe61c;" 
d="M892 240q-4 -24 -23.5 -41t-43.5 -17h-395q-24 0 -43 17t-23 41l-44 317q-3 24 11.5 38t37.5 10l507 -90q23 -4 37.5 -24t10.5 -44zM810 148h-481l-63 475q-2 10 -9.5 17.5t-16.5 7.5h-5h-115q-12 0 -20.5 -7.5t-8.5 -18t8.5 -18.5t20.5 -8h97l64 -475q1 -11 9 -18.5
t18 -6.5h2h500q12 0 20.5 7.5t8.5 18.5t-8.5 18.5t-20.5 7.5zM473 6q0 -24 -17 -40.5t-41 -16.5t-41 16.5t-17 40.5t17 40.5t41 16.5t41 -16.5t17 -40.5zM785 6q0 -24 -17 -40.5t-41 -16.5t-40.5 16.5t-16.5 40.5t16.5 40.5t40.5 16.5t41 -16.5t17 -40.5z" />
    <glyph glyph-name="shanghai" unicode="&#xe64f;" 
d="M512 742q-91 0 -173.5 -35t-142 -95t-94.5 -142.5t-35 -172.5q0 -162 102.5 -285t257.5 -153l15 163q-41 16 -66.5 47t-25.5 69q0 47 37.5 82.5t93.5 43.5v195q-21 8 -34 24.5t-13 36.5q0 25 19.5 43.5t47.5 21.5v105q0 5 3 8.5t8 3.5t8 -3.5t3 -8.5v-105q29 -3 48 -21.5
t19 -43.5q0 -20 -13 -36.5t-34 -24.5v-195q56 -9 93.5 -44t37.5 -82q0 -38 -25 -69t-67 -47l15 -162q156 30 258 152.5t102 284.5q0 90 -35 172.5t-94.5 142.5t-142 95t-173.5 35z" />
    <glyph glyph-name="sheying" unicode="&#xe61d;" 
d="M962 574v-622h-900v538l4 2q204 65 243 78q17 5 31 5h22v73h300v-73h9q209 0 271 -1h20zM512 502q-30 -3 -33 -3q-12 -2 -27 -6q-63 -16 -106.5 -63t-54 -105.5t10.5 -121.5q32 -83 116 -120.5t170 -7.5q81 28 121.5 101t21.5 155q-17 74 -78.5 122t-140.5 49zM100 538
v73h150q0 -18 -1 -21q0 -3 -6 -5q-30 -10 -118 -39q-1 0 -25 -8zM512 134q-53 1 -95 34.5t-52 84.5q-11 56 18.5 104t85.5 65q62 18 118 -13.5t71 -93.5q14 -59 -19 -111t-93 -65q-1 0 -34 -5z" />
    <glyph glyph-name="fangdajing1" unicode="&#xe634;" 
d="M850 -1l1 1l-198 193q60 71 63 161q3 53 -17 105t-57 91q-67 71 -165 83q-18 3 -37 3q-95 0 -168 -56q-41 -31 -68 -75t-36 -93q-17 -97 33 -181q34 -57 90 -93q52 -32 113 -40q18 -2 36 -2q88 0 158 48l198 -193l4 -3v0q10 -8 23 -8q15 0 26 10.5t11 24.5t-10 24v0z
M650 263q-24 -48 -70 -81.5t-100 -41.5q-52 -9 -103 5q-49 13 -88.5 45.5t-60.5 77.5q-24 50 -21.5 108.5t32.5 105.5q26 44 69 73t94 37h5q5 1 8 1q12 2 25 2q53 0 99 -21q41 -19 72.5 -52t47.5 -74q18 -45 15.5 -93.5t-24.5 -91.5z" />
    <glyph glyph-name="weixin" unicode="&#xe603;" 
d="M669 495q14 0 30 -2q-20 95 -110.5 157.5t-206.5 62.5q-130 0 -222 -77.5t-92 -189.5q0 -124 126 -212l-31 -94l109 55q80 -16 110 -16q14 0 30 1q-10 33 -10 66q0 103 77.5 176t189.5 73zM500 580q18 0 28.5 -11t10.5 -28.5t-10.5 -28.5t-28.5 -11t-32.5 11.5
t-14.5 28.5t14.5 28t32.5 11zM280 501q-18 0 -32.5 11.5t-14.5 28.5t14.5 28t32.5 11t29 -11t11 -28.5t-11 -28.5t-29 -11zM956 250q0 93 -80 160.5t-187 67.5q-112 0 -189.5 -67t-77.5 -161.5t77.5 -161t189.5 -66.5q31 0 94 16l86 -47l-23 78q110 83 110 181zM602 289
q-11 0 -21 10t-10 21.5t10 21.5t21 10q17 0 28.5 -9.5t11.5 -22t-11.5 -22t-28.5 -9.5zM775 289q-12 0 -21.5 10t-9.5 21.5t9.5 21.5t21.5 10q17 0 28 -9.5t11 -22t-11 -22t-28 -9.5z" />
    <glyph glyph-name="shouji2" unicode="&#xe647;" 
d="M703 751h-382q-43 0 -73.5 -30.5t-30.5 -73.5v-693q0 -43 30.5 -73.5t73.5 -30.5h382q43 0 73.5 30.5t30.5 73.5v693q0 43 -30.5 73.5t-73.5 30.5zM477 716h70q7 0 12 -5t5 -12t-5 -12t-12 -5h-70q-7 0 -12 5t-5 12t5 12t12 5zM512 -108q-18 0 -31 13t-13 31.5t13 31.5
t31 13t31 -13t13 -31.5t-13 -31.5t-31 -13zM737 40q0 -7 -5 -12t-12 -5h-416q-7 0 -12 5t-5 12v590q0 7 5 12t12 5h416q7 0 12 -5t5 -12v-590z" />
    <glyph glyph-name="iconziti09" unicode="&#xe61e;" 
d="M884 209h-47q-11 -41 -33 -78l44 -43q21 -21 21 -50.5t-21 -50.5l-25 -25q-21 -21 -50.5 -21t-50.5 21l-44 44q-36 -21 -77 -32v-46q0 -29 -21 -50t-50 -21h-36q-29 0 -50 21t-21 50v46q-41 11 -78 32l-43 -44q-21 -21 -50.5 -21t-50.5 21l-25 25q-21 21 -21 50.5
t21 50.5l44 43q-22 37 -33 78h-47q-29 0 -50 21t-21 50v36q0 29 21 50t50 21h46q12 41 32 77l-42 42q-21 21 -21 50t21 50l25 25q21 21 50.5 21t50.5 -21l41 -41q37 23 80 34v48q0 29 21 50t50 21h36q29 0 50 -21t21 -50v-48q42 -11 80 -34l41 41q21 21 50.5 21t50.5 -21
l25 -25q21 -21 21 -50t-21 -50l-42 -42q20 -36 31 -77h47q29 0 50 -21t21 -50v-36q0 -29 -21 -50t-50 -21zM512 492q-81 0 -138 -57t-57 -138t57 -138.5t138 -57.5t138 57.5t57 138.5t-57 138t-138 57zM512 210q-37 0 -63 26t-26 63t26 63t63 26t63 -26t26 -63t-26 -63
t-63 -26z" />
    <glyph glyph-name="mima" unicode="&#xe736;" 
d="M760 371v103q0 5 -0.5 14t-5 34t-13 48t-26.5 50.5t-42.5 47.5t-64.5 34t-89.5 14t-89.5 -13.5t-64.5 -34.5t-42.5 -47t-26 -51.5t-13 -47t-6 -34.5v-14v-103h-104v-484h691v484h-104zM553 104v-113h-69v113q-34 20 -34 59q0 29 20 49.5t48.5 20.5t49 -20.5t20.5 -49.5
q0 -39 -35 -59zM691 371h-345v103q0 14 2 29.5t12.5 43t27.5 48t51 36.5t79.5 16t80 -16t51.5 -36.5t27 -48t12 -43t2 -29.5v-103z" />
    <glyph glyph-name="shouji" unicode="&#xe737;" 
d="M692 716h-335q-31 0 -53.5 -20.5t-22.5 -48.5v-694q0 -28 22.5 -48.5t53.5 -20.5h335q31 0 53.5 20.5t22.5 48.5v694q0 28 -22.5 48.5t-53.5 20.5zM479 661h91q6 0 10.5 -4.5t4.5 -10t-4.5 -9.5t-10.5 -4h-91q-6 0 -10.5 4t-4.5 9.5t4.5 10t10.5 4.5zM524.5 -88
q-18.5 0 -32 12t-13.5 29.5t13.5 29.5t32 12t32 -12t13.5 -29.5t-13.5 -29.5t-32 -12zM738 23h-427v554h427v-554z" />
    <glyph glyph-name="hunshalifu" unicode="&#xe617;" 
d="M640 421v135q36 61 43 117v96h-43v-85q-5 0 -13.5 -1t-31 -6.5t-39 -14t-30.5 -25t-14 -38.5q0 22 -13 38.5t-32 25t-38 14t-32 6.5l-13 1v85h-43v-96q4 -25 14.5 -54.5t19.5 -45.5l9 -17v-135l-256 -420q24 -26 73 -45t99.5 -26t101 -11.5t78.5 -3t32 0.5h32.5t76 4
t102.5 12t97.5 26t75.5 43z" />
    <glyph glyph-name="fangdajing" unicode="&#xe605;" 
d="M870 12l-176 176l-6 6q47 72 47 159q0 120 -85.5 205.5t-206.5 85.5t-206.5 -85.5t-85.5 -206t85.5 -206t206.5 -85.5q86 0 159 47q3 -5 5 -7l177 -176q17 -18 42.5 -18t43.5 18t18 43.5t-18 43.5zM443 153q-83 0 -141.5 58.5t-58.5 141t58.5 141t141 58.5t141.5 -58.5
t59 -141t-59 -141t-141 -58.5v0z" />
    <glyph glyph-name="sanjiao" unicode="&#xe619;" 
d="M1024 601l-512 -602l-512 602h1024z" />
    <glyph glyph-name="youjiantou" unicode="&#xe620;" 
d="M703 292l-346 350l-36 -36l313 -312l-312 -295l35 -36l313 296h-1z" />
    <glyph glyph-name="arrowright" unicode="&#xe604;" 
d="M666 288l-384 -383h77l383 383l-383 384h-77z" />
    <glyph glyph-name="tuichu" unicode="&#xe687;" 
d="M271 617q-42 -30 -74.5 -68t-56 -82t-36 -93.5t-12.5 -99.5q0 -87 33.5 -163.5t90 -133.5t133 -90t163.5 -33t163.5 33t133.5 90t90 133.5t33 163.5q0 49 -12 97t-33.5 91t-53.5 80.5t-71 67.5q-21 15 -45 11.5t-39 -23t-11 -44t24 -39.5q59 -43 90.5 -106t31.5 -135
q0 -62 -23.5 -117t-64.5 -96t-96 -64.5t-116.5 -23.5t-116.5 23.5t-96 64.5t-65 96t-24 117q0 73 34 138t95 107q21 15 25 39t-10 45q-14 20 -38.5 24t-45.5 -10v0v0zM512 271q25 0 42.5 17.5t17.5 41.5v356q0 25 -17.5 42.5t-42.5 17.5t-42.5 -17.5t-17.5 -42.5v-356
q0 -24 17.5 -41.5t42.5 -17.5v0v0zM512 271z" />
    <glyph glyph-name="shiliangzhinengduixiang3" unicode="&#xe611;" 
d="M445 232q106 -106 135 -77q2 2 5 6q15 15 23.5 21t23 10t33 -4.5t43.5 -28.5q14 -11 22 -21.5t12 -19t2.5 -19t-3.5 -16.5t-9.5 -16t-11.5 -14l-14 -14t-13 -12q-31 -32 -125 3.5t-191.5 132.5t-133.5 191t-5 125q3 3 12.5 13t14 14.5t14 12t15.5 9.5t16.5 3.5t19 -2.5
t19 -12t21.5 -22q21 -25 29.5 -43.5t4.5 -33.5t-10 -23t-21 -23q-4 -4 -5 -6q-29 -28 77 -134v0zM520 477q-16 2 -27 -9q-8 -8 -8 -20.5t8 -21.5q4 -3 8 -5.5t7 -2.5l2 -1q48 -8 79.5 -40t40.5 -79q1 -10 8 -17q9 -9 21.5 -9t20.5 9q5 5 7.5 11.5t1.5 10.5v4
q-10 65 -57 112.5t-112 57.5v0zM666 453q41 -41 59.5 -86.5t12.5 -85.5q-2 -17 8 -28q10 -8 22 -8t21 8q3 4 5.5 8.5t2.5 7.5l1 4q6 44 -12.5 104t-77 119t-118.5 77.5t-105 12.5q-12 -2 -19 -9q-8 -9 -8.5 -21t8.5 -22q5 -4 12 -6t11 -2h4q40 6 85.5 -12.5t87.5 -60.5v0z
" />
    <glyph glyph-name="hotline" unicode="&#xe64c;" 
d="M748 64l-83 132q-5 7 -13.5 9t-16.5 -3l-42 -36q-15 -6 -30.5 6.5t-44.5 48.5l-71 113q-28 56 -6 73l49 26v0q8 5 10 13.5t-3 16.5v0l-83 132q-5 8 -13.5 9.5t-16.5 -2.5l-43 -34q-10 -9 -19 -24t-14.5 -45t-2.5 -67t24 -93.5t60 -119.5q40 -65 82.5 -111t76 -67
t64.5 -30.5t49.5 -8t29.5 7.5l51 23v1q7 4 9 13t-3 16v1v0zM510.5 737q-90.5 0 -173.5 -35.5t-143 -95.5t-95.5 -142.5t-35.5 -173.5t35.5 -174t95.5 -143t143 -95.5t173.5 -35.5t173.5 35.5t143 95.5t95.5 143t35.5 174t-35.5 173.5t-95.5 142.5t-143 95.5t-173.5 35.5z
M510.5 -109q-108.5 0 -200.5 53.5t-145.5 145t-53.5 200t53.5 200.5t145.5 145.5t200.5 53.5t200 -53.5t145 -145.5t53.5 -200.5t-53.5 -200t-145 -145t-200 -53.5z" />
    <glyph glyph-name="gouwuche" unicode="&#xe653;" 
d="M825 203l146 333q5 13 -2.5 24.5t-21.5 11.5h-619l-23 104q-1 9 -8 14.5t-17 5.5h-203q-11 0 -18.5 -7.5t-7.5 -18t7.5 -18t18.5 -7.5h183l116 -540q-31 -9 -51.5 -35.5t-20.5 -59.5q0 -42 29.5 -71t70.5 -29t70 29t29 71q0 25 -13 48h198q-13 -23 -13 -48q0 -42 29 -71
t70.5 -29t70.5 29t29 70.5t-29 70.5t-70 29h-4h-3h-341v1.5v1.5l-16 76h391q17 0 23 15zM403.5 -52q-25.5 0 -43 18t-17.5 43.5t17.5 43.5t43 18t43.5 -18t18 -43.5t-18 -43.5t-43.5 -18zM836 9.5q0 -25.5 -18 -43.5t-43.5 -18t-43.5 18t-18 43.5t18 43.5t43.5 18t43.5 -18
t18 -43.5zM405 239l-65 282h568l-123 -282h-380z" />
    <glyph glyph-name="xinxi1" unicode="&#xe615;" 
d="M48 611q-8 -13 -8 -22v-576q0 -10 8 -22l312 310zM982 612l-313 -311l313 -311q1 1 5.5 6t6.5 9t2 8v576q0 4 -2 8t-6.5 9t-5.5 6zM634 282l-241 -1l-15 5l-310 -306q1 -1 7 0t8 1h860q1 0 7.5 -1t6.5 0l-310 308zM391 319l241 1l15 -5l310 305q-2 1 -7 -0.5t-7 -1.5
h-860q-2 0 -7 1.5t-8 0.5l310 -307z" />
    <glyph glyph-name="ren1" unicode="&#xe63b;" 
d="M881 108q-14 6 -61.5 33t-98 48.5t-106.5 31.5q37 40 81 152q3 9 5.5 18.5t4 16.5t2 19t0.5 17v21v21q0 9 1 35.5t0.5 46.5t-3.5 33q-20 69 -65.5 97.5t-113 28.5t-113.5 -28.5t-65 -97.5q-4 -13 -4.5 -33t1 -46.5t1.5 -35.5q0 -5 -0.5 -21t0 -21t1 -17.5t1.5 -19
t3.5 -16.5t6.5 -19q44 -112 80 -151q-55 -11 -105.5 -32t-97.5 -48t-61 -34q-98 -44 -115 -100l-2 -9v-98h941v98q0 2 -1 6t-7.5 17t-17.5 25.5t-35 29.5t-57 32v0z" />
    <glyph glyph-name="xiajiantou" unicode="&#xe61a;" 
d="M158 471h69l290 -290l290 290h68l-358 -358z" />
    <glyph glyph-name="shafa" unicode="&#xe616;" 
d="M876 368q-21 -23 -26 -49t-0.5 -75.5t3.5 -79.5q-84 3 -223.5 -0.5t-258.5 -2t-210 14.5q-4 30 1 64l7.5 51t-8.5 49q-91 67 -120 -5q-25 -64 5.5 -179t84.5 -156q15 -12 30 -14q41 9 100 19q141 19 315.5 14.5t288.5 -31.5q19 13 35 32.5t27 38t21 49.5t15.5 51.5
t12 60.5t9.5 58.5t8 62.5q-60 64 -117 27zM970 301v-3v3v0zM214 271q-17 0 -29.5 -10.5t-12.5 -25.5v-4q0 -15 12.5 -25t30.5 -10l587 1q18 0 30 10.5t12 25.5v4q0 14 -12 24.5t-30 10.5zM189 301l645 2q-8 36 24 107l12.5 25t19 47t8.5 47q-8 6 -22.5 16.5t-62 36.5t-97 44
t-123 30.5t-144.5 6.5t-157 -39.5t-166 -96.5q0 -2 -0.5 -6.5t1 -18.5t5.5 -29.5t15.5 -38.5t28.5 -47v0q25 -33 13 -86z" />
    <glyph glyph-name="dizhi" unicode="&#xeb87;" 
d="M512 811q-102 0 -189 -52.5t-137 -143t-50 -197.5q0 -61 38.5 -148t94 -168.5t111 -153t94 -116t38.5 -43.5q8 8 21.5 23.5t52.5 62.5t74.5 93.5t79 110t75 120t53 115.5t21.5 104q0 107 -50.5 197.5t-137.5 143t-189 52.5zM512.5 182q-93.5 0 -160 69t-66.5 166.5
t66.5 167t160 69.5t159.5 -69.5t66 -167t-66 -166.5t-159.5 -69z" />
    <glyph glyph-name="fankui" unicode="&#xe624;" horiz-adv-x="1114" 
d="M299 456h569l-285 -284zM299 456z" />
    <glyph glyph-name="dingdan02" unicode="&#xe60e;" 
d="M138 -63q-24 0 -40.5 17t-16.5 40v629q0 23 16.5 40t40.5 17h69q8 0 13.5 5.5t5.5 13.5t-5.5 13.5t-13.5 5.5h-69q-40 0 -67.5 -28t-27.5 -67v-628q0 -40 27.5 -67.5t67.5 -27.5h275l-37 37h-238v0zM789 623q0 39 -27.5 67t-67.5 28h-68q-8 0 -13.5 -5.5t-5.5 -13.5
t5.5 -13.5t13.5 -5.5h68q24 0 40.5 -17t16.5 -40v-148l38 -37v185v0zM602 607h-372q-18 0 -30.5 -12.5t-12.5 -30t12.5 -30t30.5 -12.5h372q18 0 30.5 12.5t12.5 30t-12.5 30t-30.5 12.5v0zM530 699q0 28 -20 48t-48 20h-92q-28 0 -47.5 -20t-19.5 -48v-96h227v96v0z
M416 639q-19 0 -32 13t-13 31.5t13 32t32 13.5t32 -13.5t13 -32t-13 -31.5t-32 -13v0zM475 83zM625 419q0 -8 -13.5 -14.5t-33.5 -6.5h-342q-20 0 -34 6.5t-14 14.5v0q0 9 14 15t34 6h342q20 0 33.5 -6t13.5 -15v0zM625 244q0 -8 -13.5 -14.5t-33.5 -6.5h-342q-20 0 -34 6.5
t-14 14.5v0q0 9 14 15t34 6h342q20 0 33.5 -6t13.5 -15v0zM586 69q0 -4 4 -10t2 -8.5t-14 -2.5h-342q-20 0 -34 6.5t-14 14.5v0q0 9 14 15t34 6h342q12 0 14 -2.5t-2 -8.5t-4 -10v0zM829 188l34 10q13 4 29 8q14 4 24 8l-10 -37q-4 -16 -7 -23q-8 -19 -17 -35t-18 -28
q-9 -14 -20 -26l-86 -26l70 -13q-14 -12 -30 -24q-14 -11 -31 -22q-19 -12 -38 -22t-43.5 -10t-46.5 3q-25 4 -50 12q7 11 17 27q8 13 18.5 29.5t22.5 38.5q34 57 65 111q32 55 57 99q28 50 55 97q-32 -38 -69 -85q-31 -40 -70 -95t-79 -120q-7 -12 -18 -31q-12 -19 -23 -37
q-14 -26 -23 -41q-13 -21 -25 -40q-28 -46 -57 -95q1 14 6 38q4 19 14 49q9 29 28 69q13 27 18 39q7 17 10 22q3 9 5 11q-3 4 -1 17q1 11 8 33q7 21 23 60t42 84t59 89.5t71.5 86t79 74t80.5 53t78 23.5q1 -25 -5 -65q-5 -39 -14 -86q-8 -45 -19 -93q-10 -48 -20 -86z
M829 188z" />
    <glyph glyph-name="nan" unicode="&#xe632;" 
d="M608 800v-93h195l-191 -206q-73 51 -165 63.5t-183 -17.5t-156 -100q-71 -77 -93.5 -177.5t8 -199t107 -170t176.5 -93.5t198 8t170 107q100 109 105 250.5t-93 259.5l201 217v-221h93v372h-372v0zM602 -12q-80 -86 -198 -90.5t-204.5 76t-90.5 198.5t76 204t198 90.5
t204.5 -75.5t90.5 -198t-76 -205v0v0zM602 -12z" />
    <glyph glyph-name="nv" unicode="&#xe633;" 
d="M611 -6q-110 0 -204 54.5t-148.5 148t-54.5 204t54.5 204.5t148.5 148.5t204.5 54.5t204 -54.5t148 -148.5t54.5 -204.5t-54.5 -204t-148 -148t-204.5 -54.5v0zM611 686q-118 0 -201.5 -83.5t-83.5 -201.5t83.5 -202t201.5 -84t202 84t84 202t-84 201.5t-202 83.5v0z
M315 230l86 -87l-309 -309l-86 87l309 309v0zM101 220l285 -284l-87 -86l-284 284l86 86v0zM101 220z" />
    <glyph glyph-name="message" unicode="&#xe637;" 
d="M512 -36q-41 0 -84 7l-197 -119v199q-78 55 -123 135t-45 171q0 107 60 197.5t163.5 143t225.5 52.5t225.5 -52.5t163.5 -143t60 -197.5t-60 -197.5t-163.5 -143t-225.5 -52.5zM512 694q-107 0 -197.5 -45t-143 -122.5t-52.5 -169.5q0 -84 45 -156.5t123 -119.5l-2 -130
l132 80q48 -11 95 -11q107 0 197.5 45t143 123t52.5 169.5t-52.5 169t-143 122.5t-197.5 45zM736.5 301q-23.5 0 -40 16.5t-16.5 39.5t16.5 39.5t40 16.5t40 -16.5t16.5 -39.5t-16.5 -39.5t-40 -16.5zM512 301q-23 0 -39.5 16.5t-16.5 39.5t16.5 39.5t39.5 16.5t39.5 -16.5
t16.5 -39.5t-16.5 -39.5t-39.5 -16.5zM287.5 301q-23.5 0 -40 16.5t-16.5 39.5t16.5 39.5t40 16.5t40 -16.5t16.5 -39.5t-16.5 -39.5t-40 -16.5z" />
    <glyph glyph-name="shouji1" unicode="&#xe6ce;" 
d="M751 650h-478v-618h478v618zM562 700q0 10 -10 10h-100q-10 0 -10 -10v-10q0 -10 10 -10h100q10 0 10 10v10zM512 -87q16 0 28 11.5t12 28t-12 28.5t-28 12t-28 -12t-12 -28.5t12 -28t28 -11.5zM751 -147h-478q-25 0 -42.5 17.5t-17.5 42.5v777q0 24 17.5 42t42.5 18h478
q25 0 42.5 -18t17.5 -42v-777q0 -25 -17.5 -42.5t-42.5 -17.5z" />
    <glyph glyph-name="shenghuoshishang" unicode="&#xe6e9;" 
d="M814 78q42 0 70 -28.5t28 -70.5v-5q0 -21 -4 -46q-6 -25 -19.5 -47t-38 -37t-63.5 -15q-37 0 -61.5 15.5t-39.5 42t-22 62t-10 76.5q-3 42 -3 85q-1 41 -3 87q-2 64 -8 111q-7 48 -21 79q-15 31 -40 46.5t-64 15.5q-44 0 -77.5 -11t-54.5 -38q-22 -28 -32.5 -74
t-10.5 -115t-4 -138q-3 -68 -16 -122q-13 -53 -38 -86t-68 -33q-28 0 -49 7t-35.5 18t-23.5 25.5t-14 29.5q-12 35 -9 79q1 19 9 35.5t22 28.5q13 13 30 20t37 7q8 0 15.5 -1.5t14.5 -3.5q-1 33 -4 68q-4 52 -5 69q-1 19 -4 61q-2 28 -2 46q0 63 12 122t45 104.5t90.5 72
t147.5 26.5q34 0 63 -3q5 -17 17 -41q12 -25 32 -60q24 -42 48 -68t46 -48q7 -6 18 -15q11 -10 24 -19q13 -10 29 -19q15 -9 30 -16q0 -10 1 -20v-21q0 -27 -2 -58q-1 -28 -5 -63q-4 -49 -6 -64q-2 -27 -6 -60q15 7 34 7v0v0zM935 414q4 -9 5.5 -21.5t-4 -23t-18.5 -14
t-37 5.5q-12 4 -32 17q-21 14 -46 33q-26 20 -53 44q-28 26 -54 55q-29 32 -53 64q-25 33 -43 61q-23 34 -40 62q-14 26 -14.5 39t8 16t22.5 -1.5t29 -13.5q7 -5 22 -17q16 -14 36 -33q13 11 34 29q20 16 40 29q19 14 36 21q16 8 24 3q11 -8 33 -26t45 -38q22 -20 40 -39
q18 -18 18 -23q2 -5 -6 -27q-7 -20 -17 -48q-10 -25 -20 -52q-11 -26 -14 -35q26 -28 41 -44q16 -18 18 -23v0v0zM935 414z" />
    <glyph glyph-name="weizhi" unicode="&#xe618;" 
d="M519 526q-44 0 -75 -32.5t-31 -77.5t31 -77.5t75 -32.5t75 32.5t31 77.5t-31 77.5t-75 32.5zM518.5 745q-86.5 0 -160 -44t-116 -120t-42.5 -165q0 -51 33 -126t79.5 -146t93.5 -134t80 -103t33 -39q13 15 34.5 41t76.5 99t97 138t76.5 142t34.5 128q0 89 -43 165
t-116.5 120t-160 44zM519 197q-88 0 -150.5 64t-62.5 155t62.5 155t150.5 64t150 -64t62 -155t-62 -155t-150 -64z" />
    <glyph glyph-name="xiasanjiao" unicode="&#xe609;" 
d="M774 463h-524l262 -328zM512 135z" />
    <glyph glyph-name="suo" unicode="&#xe623;" 
d="M563 207q45 28 45 81q0 40 -28 68t-68 28t-68 -28t-28 -68q0 -27 14 -50t37 -35v-155q0 -20 14 -34t34 -14t34 14t14 34v159zM832 512h64q26 0 45 -19t19 -45v-512q0 -27 -19 -45.5t-45 -18.5h-768q-26 0 -45 19t-19 45v512q0 27 19 45.5t45 18.5h64v64h128v-64h384v64
h128v-64zM256 576h64q0 80 56 136t136 56t136 -56t56 -136h64h64q0 133 -93.5 226.5t-226.5 93.5t-226.5 -93.5t-93.5 -226.5h64z" />
    <glyph glyph-name="laba" unicode="&#xe625;" 
d="M551 72q0 -61 -44 -45q-15 6 -15 7l-256 216h-39q-19 0 -32 13t-13 32v181q0 18 13 31.5t32 13.5h47l248 210q3 2 7 4t14 5t18 1t14 -14t6 -33v-622v0v0zM684 265q55 46 54 116t-54 110q-12 7 -23 -2.5t-16 -22.5l-5 -13q3 -4 7 -10t12.5 -24.5t11 -36t-4.5 -40
t-26 -39.5q-11 -15 5.5 -32.5t38.5 -5.5v0v0zM721 618q-5 5 -18 -3t-18 -21t7 -28q110 -94 110.5 -183t-110.5 -186q-16 -15 -2 -37t31 -15q59 27 97 76t47.5 106t-1.5 113.5t-48.5 104.5t-94.5 73v0v0zM721 618z" />
    <glyph glyph-name="ren" unicode="&#xe6c9;" 
d="M653 374q36 33 57 79.5t21 100.5q0 96 -63 164.5t-152 68.5t-152.5 -68.5t-63.5 -164.5q0 -97 64 -165q6 -6 17.5 -15.5t43.5 -25t64.5 -21.5t77.5 4t86 43v0zM797 213l-117 107q-17 -14 -36 -25.5t-53 -22t-70 -11.5t-84.5 14t-97.5 47q-27 -20 -52.5 -43t-59 -57
t-51 -69t-12.5 -62q0 -4 1 -9.5t9.5 -19.5t22.5 -25t44.5 -20.5t71.5 -10.5q18 -1 48 -3t109 -3.5t143.5 1.5t126.5 15t83 33v0q32 23 28 66q-4 45 -54 98v0zM797 213z" />
    <glyph glyph-name="zuimeiriji" unicode="&#xe6e2;" 
d="M791 831h-640q-36 0 -61.5 -25.5t-25.5 -61.5v-720q0 -36 25.5 -61.5t61.5 -25.5h720q37 0 62 25.5t25 61.5v637zM907 41q0 -21 -15 -36t-36 -15h-688q-22 0 -37 15t-15 36v688q0 21 15 36t37 15h596l143 -145v-594zM714 780v-117l80 -80h115v52h-98l-45 46v99h-52z
M257 543h493v-52h-493v52zM257 384h493v-52h-493v52zM257 240h209v-52h-209v52z" />
    <glyph glyph-name="duihao2" unicode="&#xe64e;" 
d="M349 495zM827 616l-5 4q-9 9 -21.5 9t-21.5 -9l-337 -337l-183 183q-7 8 -18.5 6.5t-20.5 -10.5t-10.5 -20.5t6.5 -18.5l212 -213q8 -7 19 -5.5t20 10.5h1q3 2 6 5l353 353q9 9 9 21.5t-9 21.5z" />
    <glyph glyph-name="shangsanjiao-copy" unicode="&#xe608;" 
d="M512 576l-256 -321h513z" />
    <glyph glyph-name="shangjiantou" unicode="&#xe64d;" 
d="M545 256l331 329l86 1l-418 -404h-55l-427 404h84l344 -329z" />
    <glyph glyph-name="dianhua" unicode="&#xe635;" 
d="M903 49h-782q-23 0 -39.5 16.5t-16.5 39.5v558q0 23 16.5 39.5t39.5 16.5h782q23 0 39.5 -16.5t16.5 -39.5v-558q0 -23 -16.5 -39.5t-39.5 -16.5v0v0zM840 601q-8 8 -19.5 8t-19.5 -8l-97 -96l-136 -136v0q-25 -23 -58 -23q-29 0 -54 21v-2l-183 183l2 1l-52 52
q-8 8 -19.5 8t-19.5 -8.5t-8 -20t8 -19.5l176 -177l-176 -177q-8 -8 -8 -19.5t8 -20t19.5 -8.5t19.5 8l177 177l46 -46q3 -4 7 -8l3 -3v1q24 -19 53 -19q34 0 59 25v-2l54 53l177 -178q8 -8 19.5 -8t20 8.5t8.5 20t-8 19.5l-178 177l179 177q8 8 8 19.5t-8 20.5v0v0z
M840 601z" />
    <glyph glyph-name="xinxi" unicode="&#xe62c;" 
d="M512 832q-122 0 -225 -52.5t-163 -142.5t-60 -197q0 -90 44.5 -166.5t123.5 -132.5v-205l205 112h75q122 0 225 52.5t163 143t60 197t-60 196.5t-163 142.5t-225 52.5v0zM288 384q-23 0 -39.5 16.5t-16.5 39.5t16.5 39.5t39.5 16.5t39.5 -16.5t16.5 -39.5t-16.5 -39.5
t-39.5 -16.5v0zM512 384q-23 0 -39.5 16.5t-16.5 39.5t16.5 39.5t39.5 16.5t39.5 -16.5t16.5 -39.5t-16.5 -39.5t-39.5 -16.5v0zM736 384q-23 0 -39.5 16.5t-16.5 39.5t16.5 39.5t39.5 16.5t39.5 -16.5t16.5 -39.5t-16.5 -39.5t-39.5 -16.5v0zM736 384z" />
    <glyph glyph-name="iconset0336" unicode="&#xe6eb;" 
d="M896 725h-768q-35 0 -60 -25t-25 -60v-512q0 -35 25 -60t60 -25h768q35 0 60 25t25 60v512q0 35 -25 60t-60 25zM128 683h768q11 0 15 -2l-369 -370q-13 -12 -30 -12t-30 12l-369 370q4 2 15 2zM85 128v512v6l265 -262l-265 -262v6zM896 85h-768q-11 0 -15 2l267 267
l72 -72q26 -26 60 -26q33 0 60 23l72 73l267 -267h-15zM939 128v-6l-265 262l265 262v-6v-512z" />
    <glyph glyph-name="xin" unicode="&#xe640;" 
d="M701 740q-83 0 -190 -127q-107 127 -190 127q-101 0 -173 -69t-72 -166q0 -36 13 -72t24.5 -55t33.5 -49q26 -36 70 -79t83.5 -76.5t85 -68t63.5 -47.5t30 -21q15 -9 32 -9t31 9q12 8 30.5 21t64 47.5t85 68t83.5 76.5t69 79q22 30 34 49t24.5 55t12.5 72q0 97 -71.5 166
t-172.5 69v0zM701 740z" />
    <glyph glyph-name="iconfontarrows" unicode="&#xe626;" 
d="M534 156q-10 -9 -23 -9t-23 9l-414 414q-9 9 -9 22.5t10 23.5v0q9 9 22.5 9t22.5 -9l414 -414q10 -9 9.5 -22.5t-9.5 -23.5v0zM948 615q9 -10 9 -23.5t-9 -22.5l-414 -414q-9 -9 -22.5 -9t-23.5 9v0q-9 10 -9 23.5t9 22.5l414 414q10 9 23 9t23 -9v0z" />
    <glyph glyph-name="iconfonticontrianglecopy" unicode="&#xe630;" 
d="M814 256l-303 303l-303 -303l54 -55l249 249l249 -249z" />
    <glyph glyph-name="21" unicode="&#xe686;" 
d="M339 5q-8 0 -14 6l-187 188q-6 5 -6 13t6 14l565 565q19 20 46 20q25 0 42 -17l129 -130q19 -18 17 -44q-1 -25 -19 -44l-565 -565q-6 -6 -14 -6zM179 212l160 -160l552 552q7 7 8 17q0 10 -6 16l-129 129q-6 6 -15 6q-11 0 -19 -8zM114 -32q-7 0 -12.5 4.5t-6.5 12.5
t3.5 14.5t12.5 7.5l225 37q8 1 14.5 -3.5t8 -12.5t-3.5 -14.5t-13 -8.5l-224 -36q-2 -1 -4 -1zM114 -32q-7 0 -12.5 4.5t-6.5 12.5t3.5 14.5t12.5 7.5l225 37q8 1 14.5 -3.5t8 -12.5t-3.5 -14.5t-13 -8.5l-224 -36q-2 -1 -4 -1zM114 -32q-1 0 -3 1q-8 1 -12.5 7.5t-3.5 14.5
l37 225q1 7 7.5 12t14.5 3.5t13 -8t3 -14.5l-36 -224q-2 -8 -7.5 -12.5t-12.5 -4.5zM114 -32q-1 0 -3 1q-8 1 -12.5 7.5t-3.5 14.5l37 225q1 7 7.5 12t14.5 3.5t13 -8t3 -14.5l-36 -224q-2 -8 -7.5 -12.5t-12.5 -4.5zM827 493q-8 0 -14 6l-187 188q-6 5 -6 13.5t5.5 14
t13.5 5.5t14 -6l188 -188q6 -5 6 -13t-6 -14t-14 -6zM663 21q-8 0 -13.5 5.5t-5.5 13.5t6 14l103 103q6 6 14 6t13.5 -5.5t5.5 -13.5t-6 -14l-103 -103q-6 -6 -14 -6zM593 91q-8 0 -13.5 5.5t-5.5 13.5t6 14l103 103q6 6 14 6t13.5 -5.5t5.5 -14t-6 -13.5l-103 -104
q-6 -5 -14 -5zM757 -56q-25 0 -43 18l-219 219q-5 6 -5 14t5 13l194 194q6 6 14 6t14 -6l219 -219q18 -17 18 -42.5t-18 -43.5l-136 -135q-18 -18 -43 -18zM537 195l205 -206q6 -6 15 -6t16 6l135 136q7 6 7 15t-7 16l-205 205zM167 517q-8 0 -13.5 6t-5.5 14t5 13l103 104
q6 5 14 5t14 -5.5t6 -13.5t-6 -14l-103 -103q-6 -6 -14 -6zM237 447q-8 0 -14 6t-6 14t6 13l103 104q6 5 14 5t14 -5.5t6 -13.5t-6 -14l-103 -103q-6 -6 -14 -6zM321 363q-8 0 -14 6l-218 219q-18 17 -18 42.5t18 42.5l135 136q18 18 43 18v0q25 0 43 -18l219 -219
q6 -6 6 -14t-6 -13l-194 -194q-6 -6 -14 -6zM267 788q-9 0 -15 -6l-136 -136q-6 -6 -6 -15.5t6 -15.5l205 -205l167 166l-205 206q-7 6 -16 6z" />
    <glyph glyph-name="boshimao-copy" unicode="&#xe60f;" 
d="M1017 524l-503 240l-507 -240l507 -241l395 189v-280h41v300zM514 345l-377 179l377 178l374 -178zM782 136q-91 -54 -194 -67q-87 -11 -179 8q-91 19 -164 60v184h-41v-223l12 -7q9 -6 25 -15t63.5 -27.5t96.5 -28.5q62 -13 122 -13q35 0 68 4q117 15 220 80l12 7v223
h-41v-185v0zM782 136z" />
    <glyph glyph-name="tag-copy" unicode="&#xe607;" horiz-adv-x="1515" 
d="M1119 294q0 34 -24 59l-465 464q-25 25 -66.5 42t-75.5 18h-271q-34 0 -58.5 -25t-24.5 -59v-270q0 -35 17 -76.5t42 -65.5l465 -465q24 -24 59 -24q33 0 59 24l319 319q24 25 24 59zM400.5 609.5q-24.5 -24.5 -58.5 -24.5t-58.5 24.5t-24.5 59t24.5 59t58.5 24.5
t58.5 -24.5t24.5 -59t-24.5 -59zM1345 353l-465 464q-25 25 -66.5 42t-76.5 17h-145q34 0 75.5 -17t66.5 -42l465 -464q24 -25 24 -59t-24 -59l-306 -305q20 -20 35 -29t38 -9q34 0 59 24l320 319q24 25 24 59t-24 59z" />
    <glyph glyph-name="qita" unicode="&#xe6bc;" 
d="M52 378h460v-461h51l409 921l-920 -409v-51v0zM52 378z" />
    <glyph glyph-name="baojia" unicode="&#xe612;" 
d="M774 -37h-524q-44 0 -74.5 30.5t-30.5 74.5v524q0 43 30.5 73.5t74.5 30.5h89v53h60q17 24 47 38t65.5 14t65.5 -14t48 -38h60v-53h89q43 0 74 -30.5t31 -73.5v-524q0 -44 -31 -74.5t-74 -30.5v0zM643 707h-58q0 21 -21.5 36.5t-51.5 15.5t-51.5 -15.5t-21.5 -36.5h-58
v-115h262v104v11zM836 592q0 21 -20 41.5t-42 20.5h-89v-105h-346v105h-89q-22 0 -42.5 -20.5t-20.5 -41.5v-524q0 -22 20.5 -42.5t42.5 -20.5h524q22 0 42 20.5t20 42.5v524v0zM695 125h-367q-26 0 -26 21t26 21h367q26 0 26 -21t-26 -21v0zM695 256h-367q-26 0 -26 21
t26 21h367q26 0 26 -21t-26 -21v0zM695 387h-367q-26 0 -26 21t26 21h367q26 0 26 -21t-26 -21v0zM695 387z" />
    <glyph glyph-name="dianhua1" unicode="&#xe65e;" 
d="M516 686q12 11 22.5 13.5t35.5 2.5q28 0 44 -4q4 -2 4 -21q2 -29 -8 -66.5t-28 -61.5q-6 -7 -12 -10q-4 -1 -16.5 -2.5t-21 -5t-25.5 -24t-37 -58.5q-52 -91 -52 -139q0 -18 10 -30.5t11 -20.5q0 -19 -12 -43q-17 -33 -40 -58.5t-43 -25.5q-5 -2 -16 2t-14 4
q-6 -3 -8 -8.5t-3 -13.5t-1 -11q-2 -38 31 -65.5t79.5 -39t94.5 -9.5q75 4 144.5 32.5t125 77.5t89.5 124.5t35 165.5q0 51 -14 102.5t-45.5 101.5t-77 88.5t-112 64t-145.5 29.5q-49 2 -102 -12t-104.5 -46.5t-92.5 -77.5t-66.5 -110.5t-26.5 -139.5q-4 -145 106 -274
q-20 -14 -43 4.5t-37 44.5q-75 115 -68 225q2 94 40 176t99 137.5t138 86t156 28.5q85 -2 158.5 -30.5t124 -72.5t86 -99.5t52.5 -113t17 -112.5q-1 -85 -27.5 -159t-71 -125.5t-102 -88t-121 -53.5t-127.5 -16q-58 0 -109 16t-85.5 50.5t-34.5 80.5q0 17 4 28t20 38l-4 9
q-6 5 -7.5 10t-2 10.5t-1.5 7.5q-1 62 34.5 161t91.5 185q27 44 58.5 85t52.5 56zM372 117q39 -24 57 -24q21 4 51 45t30 61q0 11 -5.5 18.5t-20 18.5t-19.5 16q-15 -54 -36.5 -83t-56.5 -52zM604 533q22 -9 49 -9q19 3 26 13q1 4 10 23.5t13 33t5 26.5q0 3 0.5 9.5t0 11
t-1.5 7.5q-6 8 -21 20t-32 18q-1 -47 -12 -79.5t-37 -73.5z" />
    <glyph glyph-name="xiaoguotu" unicode="&#xe929;" 
d="M187 830l-7 -142l37 5l5 98l725 -38l-59 -547l-54 526l-796 -82l73 -712l796 82l79 768zM144 -22l-65 639l721 74l66 -638zM133 567l57 -520l617 68l-57 520zM240 151l-5 36l495 58l4 -37zM245 263l-4 37l262 30l4 -36zM509 275l5 -37l-262 -30l-5 37zM540 335l140 16
l5 -37l-141 -16zM715 374l-120 94l-94 -119l-299 -35l70 89l247 29l47 59l23 29l29 -23l38 -29l-7 59l37 4l11 -96l41 -32z" />
    <glyph glyph-name="icon-yxj-address" unicode="&#xe622;" 
d="M512 -128q-41 0 -66 32l-244 304q-50 56 -77.5 127t-27.5 147q0 113 55.5 208t151 150.5t208.5 55.5t208.5 -55.5t151 -150.5t55.5 -208q0 -158 -110 -276l-239 -302q-25 -32 -66 -32zM512 824q-93 0 -172 -45.5t-125.5 -124.5t-46.5 -172q0 -129 88 -228l245 -306
q10 -13 21 0l241 304q92 100 92 230q0 93 -46 172t-125 124.5t-172 45.5zM514 289q-86 0 -147 60.5t-62 146.5q0 86 61 146.5t147 60.5t147 -60.5t61 -145.5q0 -86 -61 -147q-60 -61 -146 -61v0zM514 621q-52 0 -90 -37q-36 -36 -36 -88q0 -51 37 -87.5t89 -36.5v0
q51 0 88 37q36 36 36 88q1 51 -36 87.5t-88 36.5zM514 704q85 0 147 -61q61 -61 61 -147q0 -85 -61 -146t-147 -61t-147 61q-61 60 -61 147q0 85 61 146t147 61v0zM639 496q0 52 -36 88q-37 37 -89 37v0q-52 0 -88.5 -36.5t-36.5 -87.5q0 -52 36 -88q37 -37 89 -37
t88.5 36.5t36.5 87.5zM352 284z" />
    <glyph glyph-name="22" unicode="&#xe627;" 
d="M804 492q-23 0 -46 -8q15 79 -14 145t-86 102q-36 22 -77.5 27t-86.5 -13t-80 -61q-37 45 -85 63.5t-100 7.5q-63 -14 -107.5 -65.5t-54.5 -121.5q-3 -13 -1.5 -33t3 -42.5t12.5 -51t25 -57.5t41 -62.5t60.5 -65.5t83.5 -67.5t110 -68.5q6 -3 13 -3t13 3q36 20 70 41
q64 -81 187 -149q6 -3 13 -3t13 3q147 81 209 180q55 88 34 173q-13 55 -55 91t-94 36zM697 70q-53 29 -92.5 61t-60.5 60t-34 53t-16 47.5t-3 35.5t3 25q9 36 36 59.5t60 23.5q50 0 84 -55q8 -13 23 -13t23 13q34 55 84 55q33 0 60 -23.5t36 -59.5q3 -12 3 -25.5
t-2.5 -35.5t-16 -47t-34.5 -53t-60.5 -60t-92.5 -61z" />
    <glyph glyph-name="shangjiantou1" unicode="&#xe636;" 
d="M153 240l331 339q9 9 20.5 8t21 -11t10 -22t-8.5 -22l-330 -338q-9 -9 -22 -9t-21.5 9t-9 22.5t8.5 23.5zM524 579l352 -342q9 -10 8 -21.5t-11 -20.5q-9 -9 -21.5 -10t-22.5 9l-338 329q-10 10 -14 27t4 27q10 9 21.5 10t21.5 -8z" />
    <glyph glyph-name="suoyouleibie" unicode="&#xe628;" 
d="M64 811q0 9 6 15t15 6h376q9 0 15 -6t6 -15v-376q0 -9 -6 -15t-15 -6h-376q-9 0 -15 6t-6 15v376v0v0zM542 333q0 9 6 15t15 6h376q9 0 15 -6t6 -15v-376q0 -9 -6 -15t-15 -6h-376q-9 0 -15 6t-6 15v376v0v0zM64 333q0 9 6 15t15 6h376q9 0 15 -6t6 -15v-376q0 -9 -6 -15
t-15 -6h-376q-9 0 -15 6t-6 15v376v0v0zM602 772v0v-298v0h298v0v298v0h-298v0v0v0zM542 772q0 25 17.5 42.5t42.5 17.5h298q25 0 42.5 -17.5t17.5 -42.5v-298q0 -25 -17.5 -42.5t-42.5 -17.5h-298q-25 0 -42.5 17.5t-17.5 42.5v298v0v0z" />
    <glyph glyph-name="jiantou-copy-copy-copy" unicode="&#xe61f;" 
d="M512 798q-113 0 -208.5 -55.5t-150.5 -151t-55 -207.5t55.5 -207.5t151 -151t207.5 -55.5t207.5 55.5t151 151t55.5 207.5t-55 207.5t-150.5 151t-208.5 55.5zM658 361l-206 -206q-9 -9 -22.5 -9t-22.5 9t-9 22t9 23l184 184l-183 182q-9 9 -9 22t9 22q10 9 23 9t21 -9
l206 -204q9 -9 9 -23q0 -13 -9 -22z" />
    <glyph glyph-name="ruanzhuang" unicode="&#xe717;" 
d="M957 562h-67v223q0 37 -26 63t-63 26h-578q-37 0 -63 -26t-26 -63v-223h-67q-19 0 -32 -13t-13 -31v-468q0 -37 26 -63t63 -26v-44q0 -10 6.5 -16.5t16 -6.5t16 6.5t6.5 16.5v44h712v-44q0 -10 6.5 -16.5t16 -6.5t16 6.5t6.5 16.5v44q37 0 63 26t26 63v468q0 18 -13 31
t-32 13zM178 785q0 18 13 31t32 13h578q19 0 32 -13t13 -31v-223q-19 0 -32 -13t-13 -31v-223h-578v223q0 18 -13 31t-32 13v223zM913 6h-802q-18 0 -31 13t-13 31v468h111v-223q0 -18 13 -31.5t32 -13.5h578q19 0 32 13.5t13 31.5v223h111v-468q0 -18 -13 -31t-31 -13z" />
    <glyph glyph-name="shigong" unicode="&#xe639;" horiz-adv-x="1025" 
d="M781 107q-8 0 -14 5l-522 523q-6 6 -6 14t6 13l224 224q5 6 13 6t14 -6l522 -522q6 -6 6 -14t-6 -14l-224 -224q-5 -5 -13 -5zM285 649l496 -496l197 197l-496 496zM124 -126v0q-8 0 -14 5l-104 105q-6 5 -6 13t6 14l224 224q5 6 13 6t14 -6l104 -105q6 -5 6 -13t-6 -14
l-224 -224q-5 -5 -13 -5zM46 -3l78 -77l197 197l-78 77zM755 -107q-8 0 -14 6l-341 341l-87 -87q-6 -5 -14 -5t-13.5 5.5t-5.5 13.5t6 14l100 100q6 6 14 6t13 -6l342 -341l204 204l-80 80q-5 6 -5 14t5.5 13.5t13.5 5.5t13 -5l94 -94q6 -6 6 -14t-6 -13l-232 -232
q-5 -6 -13 -6zM887.5 318q-7.5 0 -13.5 6l-418 418q-6 5 -6 13t5.5 14t13.5 6t14 -6l418 -418q6 -6 6 -14t-6 -13.5t-13.5 -5.5z" />
    <glyph glyph-name="qiqiusolid" unicode="&#xe8da;" 
d="M891 376q0 99 -59.5 168.5t-143.5 69.5q-44 0 -84 -21q17 -50 17 -104q0 -73 -29 -135t-79 -101q23 -44 60 -73.5t82 -38.5l-7 -20h23l-4 -15q-4 -18 9 -32q7 -8 2 -17l-24 -42q-5 -9 4 -14q3 -1 5 -1q6 0 9 5l23 42q13 22 -4 41q-6 5 -4 13l5 20h16l-6 18q80 7 134.5 75
t54.5 162zM794 297q-7 -25 -24.5 -45t-42.5 -30q-3 -1 -5 -1q-11 0 -15 9q-2 6 0.5 12t8.5 8q38 16 48 55q2 6 7.5 9t11.5 1.5t9.5 -7t1.5 -11.5zM601 499q0 54 -17 105q-28 80 -89.5 129.5t-137.5 49.5q-100 0 -171.5 -83t-71.5 -201q0 -106 59 -185.5t147 -95.5l-16 -46
h37l-10 -39q-8 -27 11 -48q10 -10 3 -23l-33 -60q-8 -13 6 -20q3 -2 7 -2q9 0 14 7l33 60q8 14 6 30.5t-13 28.5q-8 8 -5 19l11 40q1 3 0 7h45l-17 47q51 11 94 44q50 39 79 101.5t29 134.5zM332 664q-40 -19 -68 -54t-37 -79q-2 -9 -9 -14.5t-16 -5.5h-5q-10 2 -16 11
t-4 19q11 56 46.5 100.5t86.5 68.5q10 5 20 1t14.5 -13.5t0.5 -19.5t-13 -14z" />
    <glyph glyph-name="smile" unicode="&#xe68a;" horiz-adv-x="1026" 
d="M512 834q-91 0 -174.5 -36t-144 -96t-96 -143.5t-35.5 -175t35.5 -174.5t96 -143.5t144 -96t175 -35.5t175 35.5t144 96t96 143.5t35.5 174.5t-35.5 175t-96 143.5t-144 96t-175.5 36v0zM512 9q-102 0 -188 50t-136.5 136.5t-50.5 188.5t50.5 188t136.5 136.5t188 50.5
t188.5 -50.5t137 -136.5t50.5 -188t-50.5 -188.5t-137 -136.5t-188.5 -50v0zM311 503q0 -24 16.5 -41t40.5 -17t40.5 17t16.5 40.5t-16.5 40.5t-40.5 17t-40.5 -17t-16.5 -40v0zM600 503q0 -24 16.5 -41t40.5 -17t40.5 17t16.5 40.5t-16.5 40.5t-40.5 17t-40.5 -17
t-16.5 -40v0zM699 361v0q-12 0 -21.5 -7.5t-11.5 -19.5q-10 -55 -53 -92t-100.5 -37t-101 37t-52.5 92q-3 12 -12 19.5t-21 7.5q-16 0 -26 -11.5t-7 -27.5q14 -79 76 -131t143.5 -52t143.5 52t76 131q3 16 -7 27.5t-26 11.5v0z" />
    <glyph glyph-name="unie604" unicode="&#xe654;" horiz-adv-x="1955" 
d="M1942 717q-1 10 -21 10q-8 0 -14 -3t-6 -7.5t6 -7.5t14 -3q20 0 21 10v1v0zM1945 715l1 -1q0 -2 -0.5 -5t-3.5 -5q3 0 4.5 0.5t4 3t3.5 5.5zM730 819h-256q-1 0 -1 -1q-9 -1 -16 -6q-1 0 -2 -1l-3 -1l-349 -349q-25 -25 -33.5 -57.5t0 -65t33.5 -56.5l313 -314
q38 -37 90.5 -37t89.5 37l347 347q1 1 1.5 3.5t1.5 3.5q8 9 8 20v253q-3 47 -17.5 85t-33 60.5t-44.5 39.5t-45 24t-42.5 11t-29.5 4h-12v0zM755 403h-100l30 -30q9 -10 9 -23t-9 -22q-6 -6 -14.5 -8.5t-16.5 0t-14 8.5l-67 67l-59 -59l67 -67q10 -9 10 -22.5t-10 -22.5
q-6 -6 -14 -8t-16 0t-15 8l-67 67l-71 -71q-9 -9 -22 -9t-22.5 9.5t-9.5 22.5t9 22l71 71l-67 67q-2 3 -4 5.5t-3 5.5t-1.5 6t-0.5 6t0.5 6t1.5 6t3 5.5t4 4.5q6 6 14.5 8.5t16.5 0t14 -8.5l67 -67l59 59l-67 67q-5 4 -7.5 10t-2.5 12t2.5 12t7.5 11q9 9 22 9t23 -9l27 -28
v97q0 13 9.5 22t22.5 9t22 -9t9 -22v-155h159q9 0 16 -4t11.5 -11.5t4.5 -16.5q0 -13 -9.5 -22t-22.5 -9v0zM805 619q-25 0 -42.5 17.5t-17.5 42.5t17.5 42.5t42.5 17.5t42.5 -17.5t17.5 -42.5t-17.5 -42.5t-42.5 -17.5z" />
    <glyph glyph-name="kequnnianling" unicode="&#xe613;" 
d="M352 352q-67 0 -113.5 46.5t-46.5 113.5t46.5 113.5t113.5 46.5t113.5 -46.5t46.5 -113.5t-46.5 -113.5t-113.5 -46.5zM352 608q-41 0 -68.5 -27.5t-27.5 -68.5t27.5 -68.5t68.5 -27.5t68.5 27.5t27.5 68.5t-27.5 68.5t-68.5 27.5zM512 90l-29 172l-77 26l20 61l115 -39
l35 -211zM192 90l-64 9l35 211l115 39l20 -61l-77 -26zM640 608h128v-64h-128v64zM640 480h256v-64h-256v64zM640 352h256v-64h-256v64zM640 224h256v-64h-256v64zM352 32h320v-64h-320v64zM1024 -32h-288v64h224v704h-896v-704h224v-64h-288v832h1024v-832z" />
    <glyph glyph-name="lvyou" unicode="&#xe6a7;" horiz-adv-x="1037" 
d="M764 288l-228 -255l24 -33h166h295l-257 288v0zM487 0q-10 14 -13 20q-1 1 -1.5 2.5t-1.5 2.5l-12 22v1h-1q-18 36 -34 77q0 1 -0.5 3t-1.5 2l-7 21q-1 2 -1.5 4.5t-1.5 3.5q-3 10 -6 18q-1 2 -2 5.5l-1 3.5q-3 12 -5 18q-32 108 -44 178t-6 92v6q43 5 99 -4
q23 -3 57.5 -15.5t55.5 -19t25 -0.5q2 4 -13.5 22t-41.5 39.5t-48 30.5q22 4 45.5 5t38 1t37 -1t27.5 -1q39 -1 40 0q3 3 -6 10t-23 14.5t-26 11.5q-63 20 -120 7q-66 -16 -137 -63v1.5t1 1.5q8 22 21.5 41t26 31.5t31.5 25.5t29.5 18.5t30 15t23 11t8.5 4t8.5 4t6.5 3.5
t5 3t2 3q-1 5 -26.5 9t-45.5 2h-4q-60 -6 -93 -43q-19 -23 -33 -56q-5 73 -30 117q-12 20 -29 33t-33.5 17.5t-26.5 5.5t-17 1q-15 -1 3 -54q5 -13 12 -27t20.5 -35.5t20.5 -35.5q9 -16 29 -50q-34 40 -71 57q-21 10 -46 10.5t-33 -1.5t-26 -8q-13 -4 -28 -12t-25 -15.5
t-8 -11.5q0 -1 34 -4q4 0 25.5 -0.5t33.5 -1.5t34.5 -5.5t39 -11t37 -18.5t36.5 -29l3 -3q-77 28 -142 29q-29 0 -56 -7.5t-35 -12l-24 -13.5q-11 -7 -23.5 -17t-19 -19t-3.5 -11q1 -1 39 9q5 1 28 7t36 9t39.5 7.5t47.5 5.5t48.5 -1t53.5 -8q-70 -14 -101 -74
q-10 -20 -11.5 -57t3.5 -65t9 -29q7 -2 15.5 18.5t21 54.5t24.5 55q30 50 62 80q-2 -38 -2 -68.5t2.5 -60.5t4 -47.5t7.5 -49t8.5 -43t11.5 -49.5v0q13 -53 29 -102v-0.5v-1.5q3 -7 6 -16v-0.5v-0.5q2 -6 13 -32v0h91v0v0zM372 509q8 3 21 6t42 2.5t49 -12.5q4 -3 2 -7
q-2 -3 -5 -3q-1 0 -2 1q-19 11 -46 11.5t-39 -2.5t-19 -6q-4 -1 -6 3.5t3 6.5v0zM272 454q-5 -3 -14 -11t-25.5 -30t-20.5 -44q-1 -4 -5 -4h-1q-5 1 -4 6q5 23 21.5 46.5t26.5 32t16 13.5q4 3 7 -1.5t-1 -7.5v0zM323 548h-1q-5 0 -5 5q-1 27 -9.5 55t-17 46.5t-21 37.5
t-16.5 24t-8 9q-3 4 1 7.5t7.5 -0.5t8.5 -10.5t17 -25t21.5 -38.5t17.5 -48.5t10 -55.5q0 -6 -5 -6v0zM212 0h134q-25 37 -44 106l-90 -106v0zM443 254q2 -11 7 -40t7 -38.5t7.5 -29t13 -35t19.5 -33.5v0l157 185l-104 120l-107 -129v0zM443 254z" />
    <glyph glyph-name="gs" unicode="&#xe65c;" 
d="M889 38h-49v443h-226v48h253q12 0 19.5 -7.5t7.5 -19.5v-464h-5zM770 260h-75q-8 0 -12.5 5.5t-4.5 10.5q0 7 6 11.5t11 4.5h75q7 0 11.5 -5.5t4.5 -10.5q4 -8 -1.5 -12t-14.5 -4zM770 373h-75q-8 0 -12.5 5.5t-4.5 10.5q0 7 6 11.5t11 4.5h75q7 0 11.5 -5.5t4.5 -10.5
q4 -8 -1.5 -12t-14.5 -4zM522 260h-75q-8 0 -12.5 5.5t-4.5 10.5q0 7 6 11.5t11 4.5h75q7 0 11.5 -5.5t4.5 -10.5q0 -8 -5.5 -12t-10.5 -4zM393 260h-76q-7 0 -11.5 5.5t-4.5 10.5q0 7 5.5 11.5t10.5 4.5h76q7 0 11.5 -5.5t4.5 -10.5q4 -8 -1.5 -12t-14.5 -4zM522 373h-75
q-8 0 -12.5 5.5t-4.5 10.5q0 7 6 11.5t11 4.5h75q7 0 11.5 -5.5t4.5 -10.5q0 -7 -5.5 -11.5t-10.5 -4.5zM393 373h-76q-7 0 -11.5 5.5t-4.5 10.5q0 7 5.5 11.5t10.5 4.5h76q7 0 11.5 -5.5t4.5 -10.5q4 -8 -1.5 -12t-14.5 -4zM522 486h-75q-8 0 -12.5 5.5t-4.5 10.5
q0 7 6 11.5t11 4.5h75q7 0 11.5 -5.5t4.5 -10.5q0 -7 -5.5 -11.5t-10.5 -4.5zM393 486h-76q-7 0 -11.5 5.5t-4.5 10.5q0 7 5.5 11.5t10.5 4.5h76q7 0 11.5 -5.5t4.5 -10.5q4 -7 -1.5 -11.5t-14.5 -4.5zM522 599h-75q-8 0 -12.5 5.5t-4.5 10.5q0 8 6 12.5t11 4.5h75
q7 0 11.5 -6t4.5 -11q0 -7 -5.5 -11.5t-10.5 -4.5zM393 599h-76q-7 0 -11.5 5.5t-4.5 10.5q0 8 5.5 12.5t10.5 4.5h76q7 0 11.5 -6t4.5 -11q4 -7 -1.5 -11.5t-14.5 -4.5zM635 38h-48v680h-335v-680h-48v701q0 13 7.5 20t19.5 7h377q12 0 19.5 -7t7.5 -20v-701zM921 11h-755
q-12 0 -19.5 7.5t-7.5 20t7.5 19.5t19.5 7h760q13 0 20 -7t7 -20q-9 -27 -32 -27z" />
    <glyph glyph-name="luntan" unicode="&#xe649;" 
d="M374 770q-155 0 -264.5 -83.5t-109.5 -201.5q0 -70 41.5 -130.5t112.5 -100.5l-74 -139q226 88 226 89q37 -5 68 -5q155 0 264.5 83.5t109.5 202.5q0 118 -109.5 201.5t-264.5 83.5zM695 681q59 -60 80.5 -125t8.5 -120.5t-49 -106.5t-87.5 -87t-112 -57t-118.5 -21
q1 -2 4 -6t18.5 -13.5t38.5 -16.5t68.5 -13t103.5 -6q31 0 68 5l226 -89q-73 139 -74 139q71 40 112.5 100.5t41.5 130.5q0 117 -99.5 201t-229.5 85z" />
    <glyph glyph-name="gender" unicode="&#xe6d6;" 
d="M436 219h-123v96v11q92 14 153.5 81.5t60.5 157.5q0 100 -75 171t-181 70.5t-181 -71t-75 -171.5q0 -89 61.5 -156.5t153.5 -81.5v-11v-96h-126q-18 0 -30 -11.5t-12 -28t12 -28t30 -11.5h126v-139q0 -17 12 -28.5t29.5 -11t29.5 12t12 27.5v139h123q18 0 30 11.5t12 28
t-12.5 28t-29.5 11.5zM794 442v230l78 -75q12 -12 30 -12q17 0 29 11.5t12 27.5t-12 28l-121 116q-19 24 -48 27q-35 4 -65 -24l-123 -119v0q-12 -12 -12 -28t12 -27.5t29.5 -11.5t29.5 12q41 40 78 75v-230q-92 -14 -153.5 -81.5t-60.5 -156.5q0 -101 75 -171.5t181 -70.5
t181 71t75 171q0 90 -61.5 157t-153.5 81z" />
    <glyph glyph-name="liebiao" unicode="&#xe610;" 
d="M846 603h-669q-18 0 -31 12.5t-13 30.5t13 30.5t31 12.5l669 1q19 0 32 -13t13 -31t-13 -30.5t-32 -12.5v0zM846 344l-669 -1q-18 0 -31 13t-13 30.5t13 30.5t31 13h669q19 0 32 -12.5t13 -30.5t-13 -30.5t-32 -12.5v0zM846 84h-669q-18 0 -31 12.5t-13 30.5t13 30.5
t31 12.5l669 1q19 0 32 -13t13 -30.5t-13 -30.5t-32 -13v0z" />
    <glyph glyph-name="gender11" unicode="&#xe6cc;" 
d="M336 334q79 11 132.5 71.5t53.5 142.5q0 89 -63 152.5t-152.5 63.5t-153 -63.5t-63.5 -152.5q0 -82 53.5 -142.5t132.5 -71.5v-104h-140v-60h140v-140h60v140h140v60h-140v104zM150 548q0 64 45.5 110t110.5 46t110.5 -46t45.5 -110.5t-45.5 -110.5t-110.5 -46t-110.5 46
t-45.5 111v0zM502 218q0 -89 63 -152.5t152.5 -63.5t153 63.5t63.5 152.5q0 82 -53.5 142.5t-132.5 71.5l-1 219l58 -57l42 43l-129 129l-130 -130l43 -42l57 57v-219q-80 -11 -133 -71.5t-53 -142.5v0zM874 218q0 -64 -45.5 -110t-110.5 -46t-110.5 45.5t-45.5 110.5
t45.5 110.5t110 46t110.5 -45.5t46 -111v0z" />
    <glyph glyph-name="xiouxian" unicode="&#xe724;" 
d="M991 791q-36 33 -96 51t-133 18q-110 0 -237 -39q-4 -2 -6 -2l-6 -2q-86 -26 -155.5 -63t-112.5 -76t-68.5 -76t-33.5 -71q-8 -49 12 -73q12 -15 33 -15q42 0 119 61q2 0 3 2q3 2 3 5q3 60 54 110q-20 -72 -20 -120q0 -6 6 -7q41 -7 64 -7q98 0 141 97q1 2 1 3l-4 114
l55 -93l2 -2q48 -30 94 -30q63 0 133 67q4 4 1 9q-28 40 -84 89q70 -13 106 -62q2 -2 6 -2h2q31 -2 44 -1q90 0 106 37q6 15 -1.5 35.5t-14.5 29t-13 13.5v0zM544 850q-4 14 -16 20.5t-25.5 2t-20 -16.5t-2.5 -25l64 19v0zM643 511q-3 12 -13.5 17.5t-22 2t-17 -14
t-2.5 -21.5l179 -581q6 -20 27 -20q4 0 8 1q12 4 17.5 14.5t1.5 21.5l-178 580v0zM645 105q-8 9 -20 10t-21 -7q-1 -2 -10 -8l-119 -36l-415 321q-1 1 -2 3t-1 3q-4 10 -13.5 14.5t-19.5 2.5q-12 0 -18.5 -8.5t-3.5 -19.5q0 -6 2 -11q117 -283 287 -360l-221 -66
q-9 -2 -13 -10t-2 -17q5 -15 21 -15q3 0 6 1l282 84q27 -4 54 -4q39 0 80 10l112 -86q6 -5 13 -5q11 0 17 9q6 7 4.5 15.5t-8.5 14.5l-89 69q59 24 95 56q9 8 9.5 19.5t-6.5 20.5v0zM362 45q-150 35 -263 255l325 -251l-30 -9q-18 2 -32 5v0zM362 45z" />
    <glyph glyph-name="laba1" unicode="&#xe64b;" 
d="M311 551v-327l2 -1l228 -176v150v381v149l-230 -176v0v0zM724 682v0q-12 7 -15.5 20.5t4.5 25.5q7 13 20.5 16.5t25.5 -3.5q94 -57 147 -151q53 -95 53 -203q0 -107 -53 -203q-54 -94 -147 -150q-12 -7 -25.5 -3.5t-20.5 15.5q-8 12 -4.5 25.5t15.5 20.5q78 47 123 126
q44 78 44 169t-44 169q-45 79 -123 126v0zM270 543v0h-140v-312h140v312v0zM279 612v0l274 210q9 8 22 8q14 0 24 -10t10 -24v-218v-8q48 -20 80 -61q42 -53 42 -121.5t-42 -122.5q-32 -41 -80 -61v-7v-219q0 -12 -7 -21q-9 -11 -23 -12.5t-25 6.5l-275 212h-181h-1
q-15 0 -24.5 10t-9.5 24v380v1q0 14 9.5 24t24.5 10h182v0zM609 525v0v-276q28 16 48 41q33 42 33 97t-33 97q-20 26 -48 41v0z" />
    <glyph glyph-name="liebiao1" unicode="&#xe661;" 
d="M0 704q0 27 18.5 45.5t45.5 18.5h896q27 0 45.5 -18.5t18.5 -45.5t-18.5 -45.5t-45.5 -18.5h-896q-27 0 -45.5 18.5t-18.5 45.5zM0 384q0 27 18.5 45.5t45.5 18.5h896q27 0 45.5 -18.5t18.5 -45.5t-18.5 -45.5t-45.5 -18.5h-896q-27 0 -45.5 18.5t-18.5 45.5zM0 64
q0 27 18.5 45.5t45.5 18.5h896q27 0 45.5 -18.5t18.5 -45.5t-18.5 -45.5t-45.5 -18.5h-896q-27 0 -45.5 18.5t-18.5 45.5z" />
    <glyph glyph-name="yanjing" unicode="&#xe60c;" 
d="M512 175q53 0 120 25t119.5 58.5t90.5 66t44 49.5q-3 18 -37.5 53.5t-86 72t-120.5 64t-130 27.5q-79 0 -168 -37t-147.5 -88.5t-58.5 -92.5q2 -16 37.5 -48t87 -65.5t121 -59t128.5 -25.5zM512 134q-62 0 -137.5 26.5t-135.5 64t-101 79t-41 69.5q0 57 67.5 119
t165.5 101t182 39q67 0 143.5 -29.5t135 -71t97.5 -86t39 -72.5q0 -24 -42 -64.5t-102.5 -79t-136 -67t-134.5 -28.5zM512 134zM512 279q43 0 73.5 30.5t30.5 73.5t-30.5 73.5t-73.5 30.5t-73.5 -30.5t-30.5 -73.5t30.5 -73.5t73.5 -30.5zM512 238q-60 0 -102.5 42.5
t-42.5 102.5t42.5 102.5t102.5 42.5t102.5 -42.5t42.5 -102.5t-42.5 -102.5t-102.5 -42.5zM512 238z" />
    <glyph glyph-name="riqi" unicode="&#xe62a;" 
d="M183 774v0v0zM238 128h166v111h-166v-111zM792 829h-55v-166h55v166zM294 829h-56v-166h56v166zM238 294h166v111h-166v-111zM847 774v0v0v0zM681 294h111v111h-111v-111zM847 774v-84q0 -34 -24 -58.5t-58.5 -24.5t-59 24.5t-24.5 58.5v84h-332v-84q0 -34 -24.5 -58.5
t-59 -24.5t-58.5 24.5t-24 58.5v84q-46 -1 -78.5 -33.5t-32.5 -78.5v-608q0 -46 32.5 -78.5t78.5 -32.5h664q46 0 78.5 32.5t32.5 78.5v608q0 46 -32.5 78.5t-78.5 33.5zM902 52q0 -22 -16 -38.5t-39 -16.5h-665q-23 0 -39 16.5t-16 38.5v407q0 23 16 39t39 16h665
q23 0 39 -16t16 -39v-407zM460 294h166v111h-166v-111zM460 128h166v111h-166v-111zM681 128h111v111h-111v-111zM681 128z" />
    <glyph glyph-name="zaibeiyun3" unicode="&#xe720;" 
d="M674 639h-528q-33 0 -57 -24t-24 -58v-527q0 -33 24 -57t57 -24h528q33 0 57 24t24 57v527q0 34 -24 58t-57 24zM714 30q0 -17 -12 -28.5t-28 -11.5h-528q-17 0 -28.5 11.5t-11.5 28.5v527q0 17 11.5 29t28.5 12h528q16 0 28 -12t12 -29v-527zM876 821h-507v-40h507
q17 0 29 -12t12 -29v-507h40v507q0 34 -23.5 57.5t-57.5 23.5z" />
    <glyph glyph-name="shouye-shouye" unicode="&#xe62b;" 
d="M937 434q-1 21 -14 40l-319 342q-33 34 -80 34v1h-0.5h-1h-1h-0.5v-1q-48 0 -81 -34q-316 -339 -318 -342q-14 -19 -14 -40v-6q0 -35 24.5 -59.5t59.5 -24.5h20v-300q0 -37 28.5 -63t69 -26t69.5 26t29 63v300h229v-300q0 -37 28.5 -63t69.5 -26t69.5 26t28.5 63v300h20
q35 0 59.5 24.5t24.5 59.5v0.5v0.5v5zM812 736v0l63 -67q7 -7 16.5 -7t16.5 6h1l1 1q4 5 5 11q0 1 1 3v3l7 124q1 13 -8 23v0v0h-1v0q-9 10 -22 10h-124q-2 -1 -3 -1h-3q-7 -1 -11 -5l-1 -1v0q-7 -7 -7.5 -16.5t6.5 -16.5z" />
    <glyph glyph-name="2" unicode="&#xe602;" 
d="M844 507q-26 0 -52 -9q17 90 -16 165t-98 115q-41 26 -88 31.5t-98.5 -15t-91.5 -69.5q-42 51 -96.5 72t-113.5 9q-72 -16 -122.5 -74.5t-61.5 -138.5q-2 -16 -2.5 -33t2.5 -41.5t9.5 -49t20 -55.5t33 -61t49 -64.5t67 -67.5t89 -68.5t112.5 -68.5q7 -4 14.5 -4t14.5 4
q42 22 80 47q72 -93 213 -170q7 -3 14.5 -3t14.5 3q167 91 238 204q62 101 39 198q-15 62 -63 103t-107 41zM723 26q-60 34 -105 70t-69.5 68.5t-39 60.5t-18 53.5t-3 40.5t3.5 28q10 42 40.5 69t68.5 27q57 0 95 -64q9 -15 26.5 -15t26.5 15q38 64 95 64q38 0 69 -27
t40 -69q4 -13 4 -28t-3 -40.5t-18 -53.5t-39.5 -60.5t-69 -68.5t-104.5 -70z" />
    <glyph glyph-name="juanchi" unicode="&#xe614;" 
d="M937 8v0q-9 0 -15.5 6.5t-6.5 16.5q0 23 -10 33q-14 13 -43 13h-474q-137 7 -231 105.5t-94 234.5q0 92 46 171t124.5 124.5t171.5 45.5q136 0 234 -94t105 -230v-226q0 -10 -6.5 -16.5t-15.5 -6.5t-15.5 6.5t-6.5 16.5v225q-6 118 -91.5 199.5t-203.5 81.5
q-123 0 -210 -87t-87 -210q0 -118 81.5 -203.5t199.5 -91.5h473q47 0 74 -26q24 -24 24 -66q0 -9 -6.5 -15.5t-16.5 -6.5zM404.5 242q-72.5 0 -124.5 52t-52 124.5t52 124.5t124.5 52t124.5 -52t52 -124.5t-52 -124.5t-124.5 -52zM404.5 550q-54.5 0 -93 -38.5t-38.5 -93
t38.5 -93t93 -38.5t93 38.5t38.5 93t-38.5 93t-93 38.5z" />
    <glyph glyph-name="duihao1" unicode="&#xe7a5;" 
d="M226 477l208 -207l369 369l22 -23l-390 -487l-236 322z" />
    <glyph glyph-name="fitment" unicode="&#xe60d;" 
d="M1009 360q0 43 -30 73l-401 401q-29 29 -72.5 29t-72.5 -29l-139 -140q-30 -30 -30 -72.5t30 -72.5l401 -401q30 -30 72.5 -30t72.5 30l31 32l28 -28q10 -10 10.5 -24t-8.5 -22l-102 -88q-10 -10 -24.5 -10t-24.5 10l-266 266q-30 30 -72.5 30t-72.5 -30l-10 -10l-66 66
q-10 10 -24 10t-24 -10l-21 -21v0l-149 -149q-30 -30 -30 -72.5t30 -72.5l89 -90q30 -30 72.5 -30t72.5 30l145 155v0l21 21q10 10 10 24t-10 24l-68 66l10 11q10 10 24.5 10t24.5 -10v0l3 -4v0l263 -263q30 -30 73 -30q42 0 70 28l103 88q30 30 30 72.5t-30 73.5l-28 27
l59 59q30 31 30 73v0zM875 332q-10 -9 -24 -9t-24 10l-345 352q-10 10 -10 24.5t10 24t24.5 9.5t23.5 -10l346 -352q9 -10 9 -24.5t-10 -24.5v0zM875 332z" />
    <glyph glyph-name="duihao" unicode="&#xe606;" 
d="M434 291l-157 155l40 39l157 -156l274 273l39 -39l-313 -311zM434 291z" />
    <glyph glyph-name="beizhu" unicode="&#xe631;" 
d="M959 700q-14 -49 -31 -63q-67 -54 -136 -123.5t-148.5 -155.5t-127.5 -133l-10 -11q-17 -26 -39.5 -45.5t-50 -33t-50.5 -22t-57.5 -19t-53.5 -18.5q-14 -5 -31 13.5t-13 34.5q37 128 50 172q3 8 20 25q375 360 393 377q14 14 27.5 29t33.5 38.5t26 30.5q29 33 65.5 35
t68.5 -28q4 -4 15 -14.5t16 -16t13 -15t12 -19.5t5 -21q1 -2 1.5 -7t1.5 -8q1 0 0 -1t0 -1zM720 658q-5 -6 -378 -379l32.5 -32.5l33.5 -33.5q203 198 382 374q-32 33 -70 71zM751 712q54 -53 91 -88q18 24 19 26q17 17 23.5 24t12.5 18t5.5 14.5t-6.5 14t-13 17t-25 23.5
q0 1 -2 2l-1 1q-24 22 -48 0q-2 -1 -56 -52zM280 145q11 4 26 10.5t26 10.5t20 8q-30 35 -45 53q-3 -7 -27 -82zM463 -63h-253q-77 0 -119 50q-26 31 -26 83q-1 372 0 505q1 67 40 105.5t107 38.5h137h137q13 0 20 -1t14 -7.5t8 -17.5q3 -28 -43 -28h-133h-133
q-48 -1 -74 -27t-26 -74v-486q0 -38 23.5 -62t60.5 -24q226 -1 521 0q30 0 48.5 20t18.5 54q1 49 1 104.5v123v104.5q0 22 2 25q17 24 28 22q2 0 5 -1.5t5.5 -5t4.5 -6.5t4.5 -7.5t4.5 -6.5v-15v-330q0 -70 -33.5 -103t-103.5 -33h-246z" />
    <glyph glyph-name="meishi" unicode="&#xe669;" horiz-adv-x="1060" 
d="M298 310l155 156l-385 384q-64 -64 -64 -155t64 -155zM670 410q62 -30 143 -9.5t146 84.5q79 79 92 177.5t-47 158.5q-61 60 -159 47t-177 -91q-65 -65 -85.5 -146t9.5 -143l-535 -536l77 -77l378 377l377 -378l78 78l-378 377z" />
    <glyph glyph-name="down" unicode="&#xe600;" 
d="M329 902l-163 -197l-164 197h327z" />
    <glyph glyph-name="huangguan" unicode="&#xe60a;" 
d="M918 573q-8 9 -23 15.5t-28 6.5v0q-30 0 -51 -21t-21 -51q0 -17 8 -32q-18 -11 -127 -78q-45 84 -91 167l-28 51q12 9 19.5 25.5t7.5 30.5v0q0 30 -21 51t-50.5 21t-50.5 -21t-21 -51q0 -36 28 -57q-8 -15 -12 -22l-15 -28q-57 -105 -91 -167q-12 8 -25 15l-11 7
q-24 15 -54 34l-40 24q8 16 8 34v0q0 30 -21 51t-50.5 21t-51 -21t-21.5 -51q0 -25 17 -45.5t41 -25.5l85 -289q1 -3 2 -8q3 -11 5 -16t7.5 -10.5t13.5 -5.5q71 -1 169 -1q72 0 177 1h166q14 0 19.5 7.5t9.5 22.5q1 6 2 10l83 285q23 6 40 26.5t17 44.5v0q0 12 -6 27t-15 23
v0zM512.5 716q11.5 0 20 -8.5t8.5 -20.5q0 -11 -8.5 -19.5t-20 -8.5t-20 8.5t-8.5 19.5q0 12 8.5 20.5t20 8.5zM178 507q-8 -9 -20 -9h-1q-11 0 -19.5 8.5t-8.5 20.5t8.5 20.5t20 8.5t20 -8.5t8.5 -20.5t-8 -20v0zM867 494q-12 0 -20.5 8.5t-8.5 20.5t8.5 20t20.5 8t20.5 -8
t8.5 -20t-8.5 -20.5t-20.5 -8.5zM566 55h-270q-9 0 -16 -7t-7 -16.5t7 -16t16 -6.5h270q9 0 16 6.5t7 16t-7 16.5t-16 7v0zM728 55h-54q-10 0 -16.5 -7t-6.5 -16v0q0 -10 6.5 -16.5t16.5 -6.5h54q9 0 16 6.5t7 16t-7 16.5t-16 7z" />
    <glyph glyph-name="sanjiao-bottom" unicode="&#xe60b;" 
d="M194 548l318 -397l318 397h-636z" />
    <glyph glyph-name="baozhangtubiao-" unicode="&#xe643;" 
d="M735 260q-16 9 -35 23q-18 14 -38 34q-15 14 -32.5 33.5t-31.5 38.5h137q18 0 18 19q0 20 -18 20h-148v41h77q21 0 30.5 10t9.5 34v81q0 24 -9 33.5t-31 9.5h-194q-21 0 -31 -10t-10 -33v-81q0 -24 9.5 -34t31.5 -10h78v-41h-149q-9 0 -13.5 -4.5t-4.5 -17.5
q0 -17 18 -17h132q-15 -19 -31 -37q-16 -19 -33 -34q-20 -19 -38 -32q-19 -14 -33 -22q-16 -7 -24 -15v271q7 15 13 33q6 16 11 32q10 36 10 47q0 25 -19 25q-15 0 -22 -30q-11 -53 -30.5 -100t-50.5 -93q-7 -10 -9 -17q-2 -8 -0.5 -13t5 -8.5t7.5 -4.5h1q6 0 11 2t10 5
q5 5 19 30l4 7v-1q0 1 1 2v-239q0 -20 20 -20t20 20v27q2 -2 5.5 -3.5t7.5 -1.5q18 0 79 47q23 19 44 40q22 23 39 46v-157q0 -9 5 -14t14 -5q20 0 20 19v150q19 -25 40 -47q21 -21 43 -40q26 -21 44 -32q18 -12 27 -12t14 7.5t5 12.5q-1 11 -25 26zM476 508q-8 0 -8 10v71
q0 5 2 7.5t6 2.5h181q8 0 8 -10v-71q0 -5 -2 -7.5t-6 -2.5h-181zM900 751l-357 114q-30 10 -60 0l-357 -114q-23 -7 -37 -26t-14 -43v-251q0 -109 50 -206.5t138 -162.5l206 -150q20 -14 44 -14t43 14l206 150q88 65 138 162.5t50 206.5v251q1 24 -13 43t-37 26zM902 431v0
q0 -97 -44.5 -184.5t-124.5 -145.5l-206 -150q-15 -10 -29 0l-206 150q-79 58 -123.5 145.5t-44.5 184.5v251q0 18 17 23l357 114q7 3 15 3t15 -3l357 -114q17 -6 17 -23v-251z" />
  </font>
</defs>
</svg>
